<svg width="25" height="12" viewBox="0 0 25 12" fill="none" xmlns="http://www.w3.org/2000/svg">
<g filter="url(#filter0_d_0_10)">
<path d="M10.8482 8.35714V3.86607L15.1696 6.125L10.8482 8.35714ZM12.5 0.660714C9.13393 0.660714 6.90179 0.821428 6.90179 0.821428C6.58929 0.857142 5.90179 0.857142 5.29464 1.5C5.29464 1.5 4.80357 1.98214 4.66071 3.08928C4.49107 4.38393 4.5 5.67857 4.5 5.67857V6.89286C4.5 6.89286 4.49107 8.1875 4.66071 9.48214C4.80357 10.5804 5.29464 11.0714 5.29464 11.0714C5.90179 11.7054 6.70536 11.6875 7.0625 11.75C7.0625 11.75 8.33929 11.875 12.5 11.9107C15.8661 11.9107 18.0982 11.7411 18.0982 11.7411C18.4107 11.7054 19.0982 11.7054 19.7054 11.0714C19.7054 11.0714 20.1964 10.5804 20.3393 9.48214C20.5089 8.1875 20.5 6.89286 20.5 6.89286V5.67857C20.5 5.67857 20.5089 4.38393 20.3393 3.08928C20.1964 1.98214 19.7054 1.5 19.7054 1.5C19.0982 0.857142 18.4107 0.857142 18.0982 0.821428C18.0982 0.821428 15.8661 0.660714 12.5 0.660714Z" fill="#f00"/>
</g>
<defs>
<filter id="filter0_d_0_10" x="0.491089" y="0.660645" width="24.0178" height="19.25" filterUnits="userSpaceOnUse" color-interpolation-filters="sRGB">
<feFlood flood-opacity="0" result="BackgroundImageFix"/>
<feColorMatrix in="SourceAlpha" type="matrix" values="0 0 0 0 0 0 0 0 0 0 0 0 0 0 0 0 0 0 127 0" result="hardAlpha"/>
<feOffset dy="4"/>
<feGaussianBlur stdDeviation="2"/>
<feComposite in2="hardAlpha" operator="out"/>
<feColorMatrix type="matrix" values="0 0 0 0 0 0 0 0 0 0 0 0 0 0 0 0 0 0 0.25 0"/>
<feBlend mode="normal" in2="BackgroundImageFix" result="effect1_dropShadow_0_10"/>
<feBlend mode="normal" in="SourceGraphic" in2="effect1_dropShadow_0_10" result="shape"/>
</filter>
</defs>
</svg>
