<svg width="38" height="30" viewBox="0 0 38 30" fill="none" xmlns="http://www.w3.org/2000/svg">
<path d="M15.4286 17.4286C15.4286 15.2991 13.7009 13.5714 11.5714 13.5714H7.07143C6.0067 13.5714 5.14286 12.7076 5.14286 11.6429V11C5.14286 8.16741 7.45313 5.85714 10.2857 5.85714H11.5714C12.2746 5.85714 12.8571 5.27455 12.8571 4.57143V2C12.8571 1.29687 12.2746 0.714284 11.5714 0.714284H10.2857C4.62054 0.714284 0 5.33482 0 11V25.1429C0 27.2723 1.72768 29 3.85714 29H11.5714C13.7009 29 15.4286 27.2723 15.4286 25.1429V17.4286ZM33.4286 17.4286C33.4286 15.2991 31.7009 13.5714 29.5714 13.5714H25.0714C24.0067 13.5714 23.1429 12.7076 23.1429 11.6429V11C23.1429 8.16741 25.4531 5.85714 28.2857 5.85714H29.5714C30.2746 5.85714 30.8571 5.27455 30.8571 4.57143V2C30.8571 1.29687 30.2746 0.714284 29.5714 0.714284H28.2857C22.6205 0.714284 18 5.33482 18 11V25.1429C18 27.2723 19.7277 29 21.8571 29H29.5714C31.7009 29 33.4286 27.2723 33.4286 25.1429V17.4286Z" fill="#5474FD"/>
</svg>
